<svg width="115" height="51" viewBox="0 0 115 51" fill="none" xmlns="http://www.w3.org/2000/svg">
<path d="M104.043 50.9589C99.3119 50.9589 96.9461 48.0963 96.9461 42.3711V21.363H92.4038V19.4467C95.6213 19.0209 98.1053 17.9326 99.856 16.1819C101.607 14.3839 102.79 11.8762 103.405 8.65875H105.25V19.0209H113.412L112.702 21.363H105.25V41.8033C105.25 43.6013 105.534 44.8078 106.102 45.4229C106.669 45.9907 107.403 46.2746 108.302 46.2746C108.964 46.2746 109.721 46.109 110.573 45.7778C111.472 45.4466 112.371 45.0208 113.27 44.5003L114.264 46.3456C112.371 47.8597 110.526 49.0189 108.728 49.8233C106.93 50.5803 105.368 50.9589 104.043 50.9589Z" fill="black"/>
<path d="M73.7673 50.8879C71.922 50.8879 70.2896 50.4147 68.8702 49.4684C67.4507 48.4748 66.3388 47.1973 65.5344 45.6359C64.7301 44.0271 64.3279 42.3001 64.3279 40.4548C64.3279 39.6031 64.3989 39.0117 64.5408 38.6805C64.7301 38.302 65.014 38.0417 65.3925 37.8998L80.013 32.4348C80.8647 32.1036 81.4088 31.7487 81.6454 31.3702C81.9293 30.9917 82.0712 30.4476 82.0712 29.7378V27.1118C82.0712 25.0299 81.5744 23.4449 80.5808 22.3566C79.6345 21.221 78.1677 20.6532 76.1804 20.6532C74.8556 20.6532 73.791 20.9371 72.9866 21.5049C72.1823 22.0254 71.7801 22.6168 71.7801 23.2793C71.7801 23.6105 71.8747 23.9417 72.064 24.2729C72.2532 24.5568 72.4662 24.8643 72.7027 25.1955C73.0813 25.6687 73.3888 26.1655 73.6254 26.686C73.862 27.1591 73.9803 27.6796 73.9803 28.2474C73.9803 29.383 73.5544 30.282 72.7027 30.9444C71.8984 31.5595 70.8811 31.867 69.6509 31.867C68.3734 31.867 67.3797 31.5122 66.67 30.8024C65.9603 30.0927 65.6054 29.0991 65.6054 27.8216C65.6054 26.0709 66.2205 24.4858 67.4507 23.0663C68.7282 21.5996 70.337 20.4403 72.2769 19.5886C74.2641 18.737 76.2751 18.3111 78.3096 18.3111C80.4388 18.3111 82.4024 18.666 84.2004 19.3757C86.0457 20.0381 87.5362 21.0791 88.6717 22.4986C89.8073 23.918 90.3751 25.787 90.3751 28.1054V43.5067C90.3751 44.4057 90.4697 45.1864 90.659 45.8488C90.8483 46.4639 91.3687 46.7714 92.2204 46.7714C92.9301 46.7714 93.9238 46.5822 95.2013 46.2037V47.978C94.255 48.5458 93.0248 49.1609 91.5107 49.8233C89.9966 50.4857 88.6244 50.8169 87.3942 50.8169C86.4479 50.8169 85.6199 50.6277 84.9101 50.2491C84.2477 49.8706 83.7273 49.2318 83.3487 48.3329C82.9702 47.3865 82.7573 46.1563 82.71 44.6422V43.5776L84.6972 45.21C83.609 46.109 82.4497 47.008 81.2195 47.907C80.0366 48.7587 78.8064 49.4684 77.5289 50.0362C76.2987 50.604 75.0449 50.8879 73.7673 50.8879ZM77.7418 46.6295C78.4043 46.6295 78.9957 46.5112 79.5162 46.2746C80.0366 46.038 80.6281 45.7068 81.2905 45.281C81.811 44.9025 82.0712 44.2401 82.0712 43.2937V34.8479C82.0712 34.706 82.0239 34.6113 81.9293 34.564C81.882 34.4694 81.7873 34.4694 81.6454 34.564L73.1995 37.6159C72.9157 37.7105 72.7027 37.8998 72.5608 38.1837C72.4662 38.4676 72.4188 38.988 72.4188 39.7451C72.4188 40.8806 72.6554 41.9689 73.1286 43.0098C73.6017 44.0508 74.2405 44.9261 75.0449 45.6359C75.8965 46.2983 76.7955 46.6295 77.7418 46.6295Z" fill="black"/>
<path d="M44.3205 50.9589C40.7718 50.9589 37.8383 50.2255 35.5198 48.7587C33.2487 47.2919 31.5453 45.3756 30.4097 43.0098C29.3215 40.5968 28.7773 38.0181 28.7773 35.2738C28.7773 33.1919 29.0849 31.1573 29.7 29.17C30.3624 27.1828 31.3324 25.3848 32.6099 23.7761C33.9347 22.12 35.5908 20.8188 37.578 19.8725C39.5653 18.8789 41.9074 18.3821 44.6044 18.3821C46.1658 18.3821 47.6563 18.5477 49.0757 18.8789C50.4952 19.2101 51.7017 19.636 52.6954 20.1564V7.23928C52.6954 6.24566 52.5298 5.58324 52.1985 5.25203C51.8673 4.92082 51.3942 4.68424 50.7791 4.5423L48.5079 3.97451V2.69699C51.2049 2.31846 53.4997 1.9636 55.3923 1.63239C57.285 1.30118 59.2486 0.757051 61.2831 0L61.9929 0.567789C61.6617 1.08826 61.4014 1.89262 61.2122 2.98088C61.0702 4.06914 60.9992 5.25203 60.9992 6.52955V43.5776C60.9992 45.139 61.4014 46.251 62.2058 46.9134C63.0102 47.5758 64.3586 47.907 66.2513 47.907V49.7523C64.2167 49.7996 62.3004 49.9652 60.5024 50.2491C58.7518 50.4857 56.8355 50.7223 54.7536 50.9589L54.0439 50.604L53.4761 46.7005H53.1922L47.0175 50.1782C46.6863 50.3674 46.2604 50.533 45.74 50.675C45.2668 50.8642 44.7937 50.9589 44.3205 50.9589ZM46.5917 45.9198C48.5316 45.9198 50.022 45.3047 51.063 44.0744C52.1512 42.8442 52.6954 41.4011 52.6954 39.7451V30.0217C52.6954 28.3657 52.3642 26.8516 51.7017 25.4794C51.0393 24.06 50.164 22.948 49.0757 22.1437C48.0348 21.292 46.8755 20.8662 45.598 20.8662C43.8474 20.8662 42.3806 21.434 41.1977 22.5695C40.0621 23.6578 39.2104 25.1009 38.6426 26.8989C38.1222 28.6496 37.8619 30.5422 37.8619 32.5768C37.8619 34.8479 38.1695 37.0008 38.7846 39.0353C39.3997 41.0699 40.346 42.726 41.6235 44.0035C42.9484 45.281 44.6044 45.9198 46.5917 45.9198Z" fill="black"/>
<path d="M9.43946 50.8879C7.59415 50.8879 5.96176 50.4147 4.54229 49.4684C3.12283 48.4748 2.01091 47.1973 1.20655 45.6359C0.402182 44.0271 0 42.3001 0 40.4548C0 39.6031 0.0709733 39.0117 0.21292 38.6805C0.402182 38.302 0.686076 38.0417 1.0646 37.8998L15.6851 32.4348C16.5368 32.1036 17.0809 31.7487 17.3175 31.3702C17.6014 30.9917 17.7433 30.4476 17.7433 29.7378V27.1118C17.7433 25.0299 17.2465 23.4449 16.2529 22.3566C15.3066 21.221 13.8398 20.6532 11.8525 20.6532C10.5277 20.6532 9.46311 20.9371 8.65875 21.5049C7.85438 22.0254 7.4522 22.6168 7.4522 23.2793C7.4522 23.6105 7.54683 23.9417 7.73609 24.2729C7.92536 24.5568 8.13828 24.8643 8.37486 25.1955C8.75338 25.6687 9.06093 26.1655 9.29751 26.686C9.53409 27.1591 9.65238 27.6796 9.65238 28.2474C9.65238 29.383 9.22654 30.282 8.37486 30.9444C7.57049 31.5595 6.55321 31.867 5.323 31.867C4.04548 31.867 3.05185 31.5122 2.34212 30.8024C1.63239 30.0927 1.27752 29.0991 1.27752 27.8216C1.27752 26.0709 1.89262 24.4858 3.12283 23.0663C4.40035 21.5996 6.00908 20.4403 7.94901 19.5886C9.93627 18.737 11.9472 18.3111 13.9818 18.3111C16.111 18.3111 18.0745 18.666 19.8725 19.3757C21.7178 20.0381 23.2083 21.0791 24.3439 22.4986C25.4794 23.918 26.0472 25.787 26.0472 28.1054V43.5067C26.0472 44.4057 26.1418 45.1864 26.3311 45.8488C26.5204 46.4639 27.0408 46.7714 27.8925 46.7714C28.6023 46.7714 29.5959 46.5822 30.8734 46.2037V47.978C29.9271 48.5458 28.6969 49.1609 27.1828 49.8233C25.6687 50.4857 24.2965 50.8169 23.0663 50.8169C22.12 50.8169 21.292 50.6277 20.5823 50.2491C19.9199 49.8706 19.3994 49.2318 19.0209 48.3329C18.6423 47.3865 18.4294 46.1563 18.3821 44.6422V43.5776L20.3694 45.21C19.2811 46.109 18.1219 47.008 16.8917 47.907C15.7088 48.7587 14.4786 49.4684 13.201 50.0362C11.9708 50.604 10.717 50.8879 9.43946 50.8879ZM13.414 46.6295C14.0764 46.6295 14.6678 46.5112 15.1883 46.2746C15.7088 46.038 16.3002 45.7068 16.9626 45.281C17.4831 44.9025 17.7433 44.2401 17.7433 43.2937V34.8479C17.7433 34.706 17.696 34.6113 17.6014 34.564C17.5541 34.4694 17.4594 34.4694 17.3175 34.564L8.87167 37.6159C8.58777 37.7105 8.37486 37.8998 8.23291 38.1837C8.13828 38.4676 8.09096 38.988 8.09096 39.7451C8.09096 40.8806 8.32754 41.9689 8.80069 43.0098C9.27385 44.0508 9.91261 44.9261 10.717 45.6359C11.5687 46.2983 12.4677 46.6295 13.414 46.6295ZM2.62601 8.5168V4.61327H26.4731V8.5168H2.62601Z" fill="black"/>
</svg>
