<svg width="190" height="52" viewBox="0 0 190 52" fill="none" xmlns="http://www.w3.org/2000/svg">
<path d="M176.709 4.48047V15.1406H185.615V17.4902H176.709V40.0654C176.709 42.3919 176.9 44.2094 177.502 45.4365C177.796 46.0357 178.181 46.48 178.684 46.7793C179.19 47.0801 179.852 47.2568 180.729 47.2568C181.902 47.2568 182.893 47.0208 183.862 46.4629C184.841 45.8987 185.825 44.9895 186.953 43.5967L187.289 43.1816L187.68 43.543L188.557 44.3535L188.854 44.627L188.649 44.9746C186.823 48.0653 183.705 50.618 178.773 50.6182C174.496 50.6182 171.655 49.4069 169.91 47.1523C168.187 44.9265 167.612 41.7838 167.612 38.1084V17.4902H163.497V15.1406H164.941C167.926 15.1406 170.108 14.1729 171.626 12.459C173.157 10.7292 174.064 8.18139 174.362 4.93457L174.403 4.48047H176.709Z" fill="#005240" stroke="#103C2B"/>
<path d="M150.363 14.4668C153.493 14.4668 156.315 15.1361 158.373 16.6934C160.323 18.1685 161.533 20.3984 161.705 23.4492L161.726 24.0703V24.0713C161.743 26.2416 161.252 27.8941 160.37 29.1484C159.488 30.4012 158.248 31.2089 156.853 31.752C155.463 32.293 153.897 32.5796 152.332 32.7783C151.548 32.8779 150.757 32.956 149.984 33.0322C149.208 33.1087 148.452 33.1837 147.727 33.2754H147.724C145.48 33.5474 143.499 33.8453 142.075 34.5811C141.376 34.9422 140.831 35.3997 140.459 35.9951C140.088 36.5896 139.866 37.358 139.866 38.3789C139.866 39.9346 140.325 41.1827 141.144 42.0391C141.959 42.8917 143.184 43.4098 144.828 43.4102C148.691 43.3771 150.948 41.9618 152.834 40.5205C153.768 39.8068 154.672 39.0353 155.605 38.4658C156.561 37.8824 157.6 37.4746 158.865 37.4746C159.482 37.4747 160.14 37.5803 160.656 37.9316C161.205 38.3056 161.523 38.909 161.523 39.7285V42.832C161.523 43.5621 161.524 44.2296 161.57 44.8301C161.616 45.4315 161.705 45.9315 161.867 46.3301C162.024 46.7187 162.247 47.0022 162.565 47.1963C162.89 47.3946 163.36 47.5273 164.059 47.5273H165.909V49.833L165.454 49.875C163.946 50.0122 160.552 50.0791 159.067 50.0791C156.619 50.0791 154.911 49.6967 153.846 48.4541C152.937 47.3938 152.583 45.7994 152.464 43.6172C151.917 44.0651 151.348 44.5807 150.743 45.1357C149.864 45.9419 148.914 46.8215 147.879 47.6289C145.806 49.2463 143.337 50.6191 140.243 50.6191C134.854 50.6191 130.836 46.8341 130.836 41.415C130.836 39.7004 131.189 38.3029 131.828 37.1582C132.466 36.0135 133.375 35.1503 134.444 34.4795C136.558 33.1527 139.351 32.5508 142.03 31.9941C144.757 31.4274 147.364 30.9071 149.304 29.7949C150.261 29.2462 151.035 28.5638 151.572 27.6768C152.107 26.7912 152.427 25.6689 152.427 24.21C152.427 21.7209 151.654 20.0516 150.608 19.0059C149.556 17.9543 148.187 17.4913 146.922 17.4912C145.801 17.4912 144.636 17.7335 143.769 18.2686C142.926 18.789 142.362 19.5828 142.362 20.7695C142.362 21.3248 142.582 21.8511 142.863 22.5254C143.13 23.1692 143.441 23.9295 143.441 24.8174C143.441 26.1918 142.953 27.245 142.16 27.9492C141.376 28.6447 140.339 28.9609 139.298 28.9609C138.217 28.9609 137.102 28.6076 136.249 27.8799C135.386 27.1429 134.817 26.0417 134.817 24.6152C134.817 21.667 137.276 19.1258 140.312 17.3604C143.38 15.5763 147.227 14.4669 150.363 14.4668Z" fill="#005240" stroke="#103C2B"/>
<path d="M126.62 0.5V42.832C126.62 43.5618 126.62 44.2289 126.666 44.8291C126.712 45.4306 126.801 45.9305 126.963 46.3291C127.12 46.7179 127.343 47.0021 127.661 47.1963C127.986 47.3946 128.457 47.5264 129.156 47.5264H131.006V49.833L130.551 49.874C129.042 50.0112 125.648 50.0781 124.163 50.0781C122.089 50.0781 120.556 49.8131 119.496 48.9863C118.579 48.271 118.096 47.2015 117.844 45.7754C113.247 48.8092 109.722 50.5508 106.148 50.5508C101.231 50.5506 97.622 48.265 95.3397 44.8467C93.0694 41.446 92.1207 36.9441 92.4344 32.4736C93.0604 23.5567 98.7671 14.4668 109.522 14.4668C110.962 14.4668 112.583 14.8961 114.121 15.5527C115.328 16.0683 116.504 16.7339 117.527 17.4668L117.589 3.99609H113.003V1.64746H113.503C115.819 1.64746 121.607 1.64239 125.3 0.521484L125.371 0.5H126.62ZM111.344 17.7607C108.176 17.7609 105.796 19.4124 104.189 21.9551C102.574 24.5122 101.758 27.9548 101.774 31.4268C101.791 34.8986 102.64 38.3415 104.288 40.8994C105.927 43.4432 108.342 45.0977 111.547 45.0977C113.685 45.0976 115.729 44.3374 117.571 43.2363C117.526 42.5552 117.523 41.8216 117.523 41.0098V20.457C115.774 18.9438 113.657 17.7607 111.344 17.7607Z" fill="#005240" stroke="#103C2B"/>
<path d="M77.0282 14.4668C80.159 14.4668 82.9805 15.1361 85.0389 16.6934C86.9888 18.1685 88.1985 20.3984 88.371 23.4492L88.3915 24.0703V24.0713C88.409 26.2416 87.918 27.8941 87.035 29.1484C86.1531 30.4012 84.9134 31.2089 83.5184 31.752C82.1285 32.293 80.5623 32.5796 78.9979 32.7783C78.214 32.8779 77.4222 32.956 76.6493 33.0322C75.8739 33.1087 75.118 33.1837 74.3925 33.2754H74.3895C72.1454 33.5474 70.1643 33.8453 68.7401 34.5811C68.0411 34.9422 67.4969 35.3997 67.1249 35.9951C66.7536 36.5896 66.5311 37.358 66.5311 38.3789C66.5311 39.9346 66.9903 41.1827 67.8094 42.0391C68.625 42.8917 69.8496 43.4098 71.494 43.4102C75.3565 43.3771 77.6138 41.9618 79.4999 40.5205C80.4338 39.8068 81.3372 39.0353 82.2704 38.4658C83.2264 37.8824 84.2652 37.4746 85.5302 37.4746C86.1475 37.4747 86.8051 37.5803 87.3212 37.9316C87.8704 38.3056 88.1884 38.909 88.1884 39.7285V42.832C88.1884 43.5621 88.1895 44.2296 88.2352 44.8301C88.281 45.4315 88.3705 45.9315 88.5321 46.3301C88.6897 46.7187 88.9121 47.0022 89.2303 47.1963C89.5555 47.3946 90.0259 47.5273 90.7245 47.5273H92.5741V49.833L92.12 49.875C90.6112 50.0122 87.2179 50.0791 85.7323 50.0791C83.2841 50.0791 81.5768 49.6967 80.5116 48.4541C79.6028 47.3938 79.249 45.7994 79.1298 43.6172C78.5824 44.0651 78.013 44.5807 77.4081 45.1357C76.5295 45.9419 75.5798 46.8215 74.5448 47.6289C72.4715 49.2463 70.0022 50.6191 66.9081 50.6191C61.5196 50.6191 57.5018 46.8341 57.5018 41.415C57.5018 39.7004 57.8543 38.3029 58.493 37.1582C59.1318 36.0135 60.0405 35.1503 61.1093 34.4795C63.2234 33.1527 66.0166 32.5508 68.6952 31.9941C71.4225 31.4274 74.03 30.9071 75.9696 29.7949C76.9265 29.2462 77.7005 28.5638 78.2372 27.6768C78.7729 26.7912 79.0927 25.6689 79.0927 24.21C79.0926 21.7209 78.3191 20.0516 77.2733 19.0059C76.2216 17.9543 74.8528 17.4913 73.5878 17.4912C72.4664 17.4912 71.3011 17.7335 70.4344 18.2686C69.5915 18.789 69.0272 19.5828 69.0272 20.7695C69.0273 21.3248 69.248 21.8511 69.5282 22.5254C69.7957 23.1692 70.1063 23.9295 70.1063 24.8174C70.1063 26.1918 69.6186 27.245 68.8251 27.9492C68.0414 28.6447 67.0047 28.9609 65.9637 28.9609C64.8822 28.9609 63.7673 28.6076 62.9149 27.8799C62.0518 27.1429 61.4823 26.0417 61.4823 24.6152C61.4823 21.667 63.9412 19.1258 66.9774 17.3604C70.0456 15.5763 73.8924 14.4669 77.0282 14.4668Z" fill="#005240" stroke="#103C2B"/>
<path d="M31.9041 0.5V19.0879C36.3851 16.1104 39.8719 14.4668 43.3464 14.4668C48.2479 14.4669 51.848 16.7528 54.1257 20.1709C56.3916 23.5714 57.3409 28.0735 57.0271 32.5439C56.401 41.4616 50.6933 50.5508 39.905 50.5508C37.135 50.5508 33.7146 48.9577 31.3132 47.1035L23.4724 49.8477L22.8074 50.0811V3.99609H18.2869V1.64746H18.7869C21.1032 1.64746 26.891 1.64246 30.5837 0.521484L30.655 0.5H31.9041ZM37.948 19.8516C35.8101 19.8517 33.7626 20.6741 31.9714 21.7871V44.5586C33.7207 46.0722 35.8374 47.2568 38.1511 47.2568C41.3184 47.2567 43.6988 45.601 45.3054 43.0518C46.921 40.4882 47.737 37.0372 47.7205 33.5566C47.7039 30.0762 46.8554 26.6248 45.2068 24.0605C43.5672 21.5103 41.1518 19.8516 37.948 19.8516Z" fill="#005240" stroke="#103C2B"/>
<path d="M14.1846 13.9961V47.5283H18.7725V49.8779H0.5V47.5283H5.08789V17.4922H0.5V15.1426H1C3.31681 15.1426 9.17166 15.1385 12.8643 14.0176L12.9355 13.9961H14.1846ZM9.7041 2.72852C11.1331 2.72861 12.3626 3.2074 13.2363 4.08105C14.1102 4.95492 14.5889 6.18496 14.5889 7.61426C14.5888 9.04348 14.1102 10.2736 13.2363 11.1475C12.3626 12.021 11.133 12.4999 9.7041 12.5C8.27497 12.5 7.04474 12.0211 6.1709 11.1475C5.29707 10.2736 4.8184 9.04348 4.81836 7.61426C4.81836 6.18496 5.29703 4.95492 6.1709 4.08105C7.04475 3.20727 8.27488 2.72852 9.7041 2.72852Z" fill="#005240" stroke="#103C2B"/>
</svg>
