<svg width="200" height="54" viewBox="0 0 200 54" fill="none" xmlns="http://www.w3.org/2000/svg">
<path d="M182.159 6.01465V16.6748H191.065V18.4248H182.159V41.2998C182.159 43.6269 182.347 45.5074 182.982 46.8027C183.297 47.4446 183.72 47.9373 184.281 48.2715C184.844 48.6062 185.562 48.791 186.479 48.791C187.697 48.791 188.742 48.5445 189.762 47.957C190.786 47.367 191.797 46.4268 192.937 45.0195L193.07 44.8535L193.228 44.998L194.104 45.8076L194.224 45.917L194.141 46.0566C192.358 49.074 189.33 51.5526 184.523 51.5527C180.303 51.5527 177.567 50.359 175.897 48.2021C174.237 46.0569 173.663 42.9988 173.663 39.3428V18.4248H169.547V16.6748H170.691C173.748 16.6748 176.017 15.6804 177.601 13.8916C179.19 12.0966 180.109 9.47865 180.41 6.19629L180.428 6.01465H182.159Z" fill="#005240" stroke="#103C2B" stroke-width="0.4"/>
<path d="M156.113 16.001C159.207 16.001 161.955 16.6637 163.942 18.167C165.938 19.6769 167.141 22.016 167.176 25.3076L167.174 25.7002C167.132 27.6281 166.661 29.0927 165.875 30.21C165.036 31.4012 163.851 32.1786 162.494 32.707C161.139 33.2345 159.601 33.5171 158.045 33.7148C157.266 33.8138 156.478 33.8925 155.705 33.9688C154.93 34.0451 154.17 34.1196 153.439 34.2119H153.438C151.205 34.4826 149.168 34.784 147.687 35.5488C146.952 35.9286 146.363 36.4191 145.956 37.0703C145.549 37.7212 145.315 38.5471 145.315 39.6133C145.315 41.2274 145.793 42.557 146.677 43.4814C147.56 44.4042 148.87 44.9451 150.58 44.9453C154.533 44.9119 156.853 43.4552 158.766 41.9932C159.719 41.2649 160.596 40.5147 161.511 39.9561C162.436 39.3919 163.421 39.0088 164.615 39.0088C165.206 39.0088 165.793 39.1116 166.237 39.4141C166.695 39.7256 166.973 40.2303 166.973 40.9629V44.0664C166.973 44.7936 166.974 45.4729 167.02 46.0869C167.067 46.7014 167.16 47.2365 167.339 47.6768C167.516 48.1131 167.775 48.4536 168.159 48.6875C168.545 48.9229 169.075 49.0615 169.809 49.0615H171.359V50.7939L171.177 50.8105C169.683 50.9464 166.302 51.0137 164.817 51.0137C162.38 51.0137 160.797 50.6278 159.824 49.4932C158.908 48.424 158.58 46.734 158.492 44.2471C157.788 44.7793 157.063 45.4396 156.29 46.1494C155.409 46.9577 154.469 47.8283 153.445 48.627C151.396 50.2252 148.991 51.5527 145.993 51.5527C140.761 51.5527 136.886 47.8937 136.886 42.6494C136.886 40.9769 137.23 39.6317 137.84 38.5391C138.449 37.4463 139.319 36.6172 140.354 35.9678C142.414 34.675 145.151 34.0816 147.842 33.5225C150.552 32.9593 153.214 32.4312 155.204 31.29C156.194 30.7224 157.009 30.0066 157.578 29.0664C158.146 28.1267 158.477 26.9489 158.477 25.4443C158.477 22.8904 157.682 21.1399 156.571 20.0283C155.457 18.9144 154.008 18.4249 152.673 18.4248C151.516 18.4248 150.291 18.6739 149.362 19.2471C148.443 19.8145 147.812 20.6993 147.812 22.0039C147.812 22.6308 148.063 23.2156 148.337 23.875C148.606 24.5221 148.891 25.2311 148.891 26.0518C148.891 27.3505 148.433 28.318 147.711 28.959C146.992 29.5964 146.032 29.8954 145.049 29.8955C144.029 29.8955 142.985 29.5615 142.194 28.8857C141.399 28.2064 140.867 27.1892 140.867 25.8496C140.867 23.0713 143.197 20.6072 146.213 18.8535C149.241 17.0925 153.037 16.001 156.113 16.001Z" fill="#005240" stroke="#103C2B" stroke-width="0.4"/>
<path d="M132.071 2.03418V44.0664C132.071 44.7935 132.071 45.473 132.117 46.0869C132.164 46.7012 132.256 47.2366 132.435 47.6768C132.612 48.113 132.872 48.4526 133.255 48.6865C133.641 48.9221 134.171 49.0615 134.906 49.0615H136.456V50.793L136.274 50.8096C134.779 50.9454 131.398 51.0127 129.913 51.0127C127.85 51.0127 126.407 50.745 125.431 49.9844C124.507 49.2636 124.039 48.1325 123.817 46.502C119.029 49.6944 115.475 51.4854 111.899 51.4854C107.088 51.4852 103.57 49.2549 101.339 45.9141C99.1135 42.5803 98.1734 38.1479 98.4836 33.7285C99.1036 24.8992 104.737 16.001 115.273 16.001C116.658 16.001 118.237 16.4154 119.753 17.0625C121.133 17.6514 122.469 18.4396 123.574 19.2969L123.641 4.93066H119.053V3.18164H119.253C121.556 3.18164 127.394 3.17956 131.138 2.04297L131.166 2.03418H132.071ZM117.094 18.6943C113.803 18.6945 111.335 20.4183 109.686 23.0293C108.033 25.646 107.208 29.1481 107.225 32.6621C107.242 36.1762 108.1 39.6787 109.786 42.2959C111.469 44.9074 113.971 46.6318 117.297 46.6318C119.568 46.6318 121.721 45.8013 123.633 44.6318C123.575 43.9137 123.573 43.1337 123.573 42.2441V21.5547C121.78 19.977 119.557 18.6943 117.094 18.6943Z" fill="#005240" stroke="#103C2B" stroke-width="0.4"/>
<path d="M82.7786 16.001C85.8727 16.001 88.6205 16.6637 90.6077 18.167C92.6035 19.6769 93.8068 22.016 93.8411 25.3076L93.8391 25.7002C93.7974 27.6281 93.3267 29.0927 92.5403 30.21C91.7017 31.4012 90.517 32.1786 89.1594 32.707C87.804 33.2345 86.2669 33.5171 84.7102 33.7148C83.9311 33.8138 83.1438 33.8925 82.3704 33.9688C81.5959 34.0451 80.8352 34.1196 80.1047 34.2119H80.1038C77.8704 34.4826 75.8332 34.784 74.3528 35.5488C73.6177 35.9286 73.0282 36.4191 72.6213 37.0703C72.2147 37.7212 71.9807 38.5471 71.9807 39.6133C71.9807 41.2274 72.4587 42.557 73.343 43.4814C74.2258 44.4042 75.5353 44.9451 77.2454 44.9453C81.199 44.9119 83.5187 43.4552 85.4319 41.9932C86.3849 41.2649 87.2616 40.5147 88.177 39.9561C89.1014 39.3919 90.0864 39.0088 91.2805 39.0088C91.8715 39.0088 92.4584 39.1116 92.9026 39.4141C93.3601 39.7256 93.6389 40.2303 93.6389 40.9629V44.0664C93.6389 44.7936 93.639 45.4729 93.6858 46.0869C93.7326 46.7014 93.8257 47.2365 94.0042 47.6768C94.1811 48.1131 94.4409 48.4536 94.8245 48.6875C95.2106 48.9229 95.7403 49.0615 96.4749 49.0615H98.0247V50.7939L97.843 50.8105C96.3489 50.9464 92.9676 51.0137 91.4827 51.0137C89.046 51.0137 87.4621 50.6278 86.4895 49.4932C85.5731 48.424 85.2451 46.734 85.1575 44.2471C84.454 44.7793 83.7289 45.4396 82.9553 46.1494C82.0744 46.9577 81.1344 47.8283 80.1106 48.627C78.0618 50.2252 75.657 51.5527 72.6584 51.5527C67.4264 51.5527 63.552 47.8937 63.552 42.6494C63.552 40.9769 63.8955 39.6317 64.5051 38.5391C65.1149 37.4463 65.985 36.6172 67.0198 35.9678C69.0798 34.675 71.8165 34.0816 74.5071 33.5225C77.2171 32.9593 79.8792 32.4312 81.8694 31.29C82.8593 30.7224 83.6745 30.0066 84.2434 29.0664C84.8119 28.1267 85.1428 26.9489 85.1428 25.4443C85.1428 22.8904 84.348 21.1399 83.2366 20.0283C82.1227 18.9144 80.674 18.4249 79.3381 18.4248C78.1813 18.4248 76.9561 18.6739 76.0276 19.2471C75.1085 19.8145 74.4778 20.6993 74.4778 22.0039C74.4779 22.6308 74.7282 23.2156 75.0022 23.875C75.2711 24.5221 75.5569 25.2311 75.5569 26.0518C75.5569 27.3505 75.0984 28.318 74.3762 28.959C73.658 29.5964 72.6971 29.8954 71.7141 29.8955C70.6945 29.8955 69.6509 29.5615 68.8596 28.8857C68.0641 28.2064 67.5325 27.1892 67.5325 25.8496C67.5325 23.0713 69.8622 20.6072 72.8782 18.8535C75.9069 17.0925 79.7026 16.001 82.7786 16.001Z" fill="#005240" stroke="#103C2B" stroke-width="0.4"/>
<path d="M37.3546 2.03418V20.8848C42.0578 17.713 45.5992 16.001 49.0968 16.001C53.8911 16.0011 57.401 18.2315 59.6271 21.5723C61.8482 24.9059 62.7878 29.3375 62.4777 33.7568C61.8579 42.5866 56.2252 51.4854 45.6554 51.4854C42.9275 51.4853 39.496 49.8757 37.1183 48.001L29.1241 50.7998L28.8575 50.8926V4.93066H24.337V3.18164H24.5372C26.8401 3.18164 32.6769 3.17947 36.421 2.04297L36.4493 2.03418H37.3546ZM43.6984 20.7861C41.4273 20.7862 39.273 21.6812 37.422 22.8555V45.9307C39.2158 47.5085 41.4386 48.791 43.9015 48.791C47.1924 48.7909 49.6601 47.0637 51.3097 44.4463C52.9629 41.8232 53.7883 38.3126 53.7716 34.79C53.7549 31.2675 52.8958 27.7563 51.2091 25.1328C49.526 22.515 47.0242 20.7861 43.6984 20.7861Z" fill="#005240" stroke="#103C2B" stroke-width="0.4"/>
<path d="M19.6351 15.5303V49.0635H24.223V50.8125H6.55017V49.0635H11.1381V18.4268H6.55017V16.6777H6.75037C9.05342 16.6777 14.9575 16.6755 18.7015 15.5391L18.7308 15.5303H19.6351ZM15.4545 4.2627C16.8153 4.26279 17.9648 4.71751 18.7748 5.52734C19.5848 6.33737 20.0394 7.48751 20.0394 8.84863C20.0394 10.2096 19.5847 11.359 18.7748 12.1689C17.9648 12.9789 16.8154 13.4335 15.4545 13.4336C14.0933 13.4336 12.9432 12.979 12.1332 12.1689C11.3233 11.359 10.8686 10.2096 10.8685 8.84863C10.8685 7.48751 11.3231 6.33737 12.1332 5.52734C12.9432 4.7174 14.0934 4.2627 15.4545 4.2627Z" fill="#005240" stroke="#103C2B" stroke-width="0.4"/>
</svg>
